<svg width="36" height="32" viewBox="0 0 36 32" fill="none" xmlns="http://www.w3.org/2000/svg">
<g filter="url(#filter0_d_1332_153)">
<path d="M28 7.75C28 16.5 15.0262 23.5825 14.4737 23.875C14.3281 23.9533 14.1654 23.9943 14 23.9943C13.8346 23.9943 13.6719 23.9533 13.5262 23.875C12.9738 23.5825 0 16.5 0 7.75C0.00231592 5.69528 0.819575 3.72539 2.27248 2.27248C3.72539 0.819575 5.69528 0.00231592 7.75 0C10.3313 0 12.5912 1.11 14 2.98625C15.4088 1.11 17.6688 0 20.25 0C22.3047 0.00231592 24.2746 0.819575 25.7275 2.27248C27.1804 3.72539 27.9977 5.69528 28 7.75Z" fill="white"/>
</g>
<defs>
<filter id="filter0_d_1332_153" x="0" y="0" width="36" height="31.9944" filterUnits="userSpaceOnUse" color-interpolation-filters="sRGB">
<feFlood flood-opacity="0" result="BackgroundImageFix"/>
<feColorMatrix in="SourceAlpha" type="matrix" values="0 0 0 0 0 0 0 0 0 0 0 0 0 0 0 0 0 0 127 0" result="hardAlpha"/>
<feOffset dx="4" dy="4"/>
<feGaussianBlur stdDeviation="2"/>
<feComposite in2="hardAlpha" operator="out"/>
<feColorMatrix type="matrix" values="0 0 0 0 0 0 0 0 0 0 0 0 0 0 0 0 0 0 0.05 0"/>
<feBlend mode="normal" in2="BackgroundImageFix" result="effect1_dropShadow_1332_153"/>
<feBlend mode="normal" in="SourceGraphic" in2="effect1_dropShadow_1332_153" result="shape"/>
</filter>
</defs>
</svg>
