<svg width="36" height="32" viewBox="0 0 36 32" fill="none" xmlns="http://www.w3.org/2000/svg">
<g filter="url(#filter0_d_1332_107)">
<path d="M14.2398 23.4331L14.2369 23.4347C14.1641 23.4738 14.0827 23.4943 14 23.4943C13.9173 23.4943 13.8359 23.4738 13.7631 23.4347L13.7602 23.4331C13.5009 23.2958 10.1569 21.473 6.88535 18.6079C3.5875 15.7198 0.500136 11.8912 0.5 7.75027C0.502243 5.82807 1.26683 3.98524 2.62603 2.62603C3.98524 1.26683 5.82807 0.502243 7.75027 0.5C10.1853 0.500078 12.2924 1.54473 13.6002 3.28646L14 3.81899L14.3998 3.28646C15.7076 1.54473 17.8147 0.500078 20.2497 0.5C22.1719 0.502243 24.0148 1.26683 25.374 2.62603C26.7332 3.98531 27.4978 5.82826 27.5 7.75056C27.4997 11.8914 24.4124 15.7199 21.1146 18.6079C17.8431 21.473 14.4991 23.2958 14.2398 23.4331Z" stroke="white" shape-rendering="crispEdges"/>
</g>
<defs>
<filter id="filter0_d_1332_107" x="0" y="0" width="36" height="31.9944" filterUnits="userSpaceOnUse" color-interpolation-filters="sRGB">
<feFlood flood-opacity="0" result="BackgroundImageFix"/>
<feColorMatrix in="SourceAlpha" type="matrix" values="0 0 0 0 0 0 0 0 0 0 0 0 0 0 0 0 0 0 127 0" result="hardAlpha"/>
<feOffset dx="4" dy="4"/>
<feGaussianBlur stdDeviation="2"/>
<feComposite in2="hardAlpha" operator="out"/>
<feColorMatrix type="matrix" values="0 0 0 0 0 0 0 0 0 0 0 0 0 0 0 0 0 0 0.05 0"/>
<feBlend mode="normal" in2="BackgroundImageFix" result="effect1_dropShadow_1332_107"/>
<feBlend mode="normal" in="SourceGraphic" in2="effect1_dropShadow_1332_107" result="shape"/>
</filter>
</defs>
</svg>
